<?xml version="1.0" standalone="no"?>
<!DOCTYPE svg PUBLIC "-//W3C//DTD SVG 20010904//EN"
 "http://www.w3.org/TR/2001/REC-SVG-20010904/DTD/svg10.dtd">
<svg version="1.0" xmlns="http://www.w3.org/2000/svg"
 width="640.000000pt" height="640.000000pt" viewBox="0 0 640.000000 640.000000"
 preserveAspectRatio="xMidYMid meet">
<metadata>
Created by potrace 1.11, written by Peter Selinger 2001-2013
</metadata>
<g transform="translate(0.000000,640.000000) scale(0.100000,-0.100000)"
fill="#000000" stroke="none">
<path d="M2999 6396 c-2 -2 -42 -7 -89 -10 -47 -3 -94 -8 -106 -10 -12 -2 -44
-7 -72 -11 -42 -5 -280 -53 -348 -70 -52 -12 -246 -76 -319 -103 -307 -116
-602 -284 -860 -491 -102 -81 -127 -104 -256 -231 -100 -99 -158 -162 -264
-291 -44 -52 -166 -228 -219 -317 -93 -152 -171 -310 -249 -502 -5 -14 -13
-34 -18 -45 -26 -63 -94 -286 -105 -345 -3 -14 -7 -33 -10 -42 -7 -23 -10 -39
-38 -185 -3 -11 -7 -43 -11 -70 -4 -26 -9 -59 -11 -73 -19 -123 -26 -562 -11
-700 26 -231 56 -385 114 -590 34 -120 93 -287 113 -322 5 -10 10 -22 10 -27
0 -15 100 -220 153 -316 100 -179 264 -413 385 -549 56 -63 271 -276 327 -324
87 -75 270 -210 362 -267 48 -30 93 -58 98 -62 32 -25 249 -134 380 -191 101
-44 315 -119 358 -126 6 -1 17 -4 22 -7 9 -6 64 -20 130 -34 11 -2 52 -11 90
-19 39 -8 86 -17 105 -20 19 -3 46 -8 60 -10 105 -20 277 -31 490 -31 179 1
242 4 385 19 78 8 299 50 383 72 28 8 78 21 110 29 78 21 264 86 280 98 6 5
12 6 12 3 0 -4 12 0 28 8 15 8 45 22 67 32 77 31 230 108 303 151 41 24 75 43
77 43 3 0 153 100 235 157 124 86 433 372 544 503 171 203 360 496 460 713 55
118 116 267 109 267 -3 0 -1 6 4 13 6 6 20 46 33 87 12 41 28 93 36 115 12 34
24 81 50 200 9 39 34 181 40 225 3 25 8 54 10 65 25 127 25 712 0 786 -3 8 -7
37 -10 64 -24 208 -144 649 -206 757 -5 10 -10 22 -10 27 0 15 -100 220 -153
316 -98 175 -258 404 -379 542 -59 68 -272 278 -338 335 -36 30 -99 80 -140
111 -41 31 -80 61 -86 66 -6 5 -50 35 -99 66 -241 157 -476 271 -750 363 -91
31 -303 88 -359 97 -17 3 -42 8 -56 10 -27 6 -77 14 -125 20 -16 3 -50 7 -75
11 -25 4 -63 9 -85 11 -55 5 -502 13 -506 9z"/>
</g>
</svg>
